<?xml version="1.0" encoding="UTF-8"?>
<svg xmlns="http://www.w3.org/2000/svg" viewBox="0 0 600 800" width="600" height="800">
  <defs>
    <style>
      .district {
        stroke: #ffffff;
        stroke-width: 2;
        cursor: pointer;
        transition: all 0.3s ease;
        filter: drop-shadow(0 2px 4px rgba(0, 0, 0, 0.1));
      }
      .district:hover {
        opacity: 0.8;
        stroke-width: 3;
        filter: drop-shadow(0 4px 8px rgba(0, 0, 0, 0.2));
      }
      .district-selected {
        stroke: #bf1a1aff;
        stroke-width: 4;
      }
      .district-label {
        font-family: "Microsoft JhengHei", "微軟正黑體", Arial, sans-serif;
        font-size: 18px;
        font-weight: bold;
        fill: #333;
        text-anchor: middle;
        dominant-baseline: middle;
        pointer-events: none;
        text-shadow: 1px 1px 2px rgba(255, 255, 255, 0.4);
      }
      .title {
        font-family: "Microsoft JhengHei", "微軟正黑體", Arial, sans-serif;
        font-size: 18px;
        font-weight: bold;
        fill: #333;
      }
    </style>
  </defs>
  

  
  <!-- 行政區路徑組 -->
  <g id="districts">
    <!-- 北投區 -->
    <path id="beitou" class="district" 
          d="M305,33 L295,31 L292,36 L286,36 L278,50 L280,60 L275,67 L268,68 L257,75 L256,87 L250,96 L240,97 L232,105 L221,107 L214,108 L201,118 L203,127 L197,146 L179,141 L174,144 L157,141 L149,135 L146,148 L142,156 L132,165 L121,175 L111,201 L101,199 L77,232 L55,255 L54,274 L41,282 L43,297 L68,312 L112,299 L125,300 L134,308 L138,325 L138,347 L167,351 L185,344 L195,330 L198,317 L209,308 L205,290 L210,282 L213,273 L221,272 L223,239 L236,230 L253,222 L264,223 L271,214 L273,201 L280,188 L287,172 L300,165 L306,144 L301,129 L307,119 L313,113 L318,100 L316,89 L325,82 L334,74 L324,65 L310,59 Z" 
          fill="#cccccc"/>
    
    <!-- 士林區 -->
    <path id="shilin" class="district" 
          d="M44,303 L35,319 L50,335 L96,341 L114,350 L139,373 L156,402 L185,400 L206,412 L209,393 L220,385 L240,366 L259,367 L278,365 L290,349 L315,341 L326,326 L342,323 L363,316 L370,303 L390,302 L405,269 L422,257 L416,249 L415,238 L393,219 L386,199 L376,193 L379,183 L375,164 L360,158 L343,152 L352,135 L358,122 L352,106 L360,89 L358,74 L350,73 L340,72 L323,91 L323,101 L314,121 L307,126 L306,135 L309,142 L303,167 L290,176 L279,198 L275,218 L268,226 L255,225 L227,240 L226,274 L216,278 L208,291 L213,309 L201,319 L191,344 L173,353 L134,349 L136,325 L132,310 L125,302 L113,301 L70,316 Z" 
          fill="#cccccc"/>
    
    <!-- 大同區 -->
    <path id="datong" class="district" 
          d="M155,405 L162,434 L160,447 L157,458 L161,467 L153,484 L165,489 L175,485 L190,485 L194,464 L189,449 L190,438 L196,409 L184,401 Z" 
          fill="#cccccc"/>
    
    <!-- 中山區 -->
    <path id="zhongshan" class="district" 
          d="M240,367 L209,394 L206,413 L197,409 L190,445 L195,462 L191,484 L207,490 L227,497 L251,495 L255,463 L272,448 L244,433 L239,422 L248,421 L263,421 L273,418 L278,409 L299,417 L317,408 L305,399 L297,384 L289,387 L288,376 L276,367 L260,369 Z" 
          fill="#cccccc"/>
    
    <!-- 松山區 -->
    <path id="songshan" class="district" 
          d="M321,408 L302,420 L279,412 L275,419 L265,422 L242,423 L246,431 L273,446 L258,463 L253,495 L287,499 L312,488 L345,486 L348,475 L335,475 L319,443 L326,432 L328,418 Z" 
          fill="#cccccc"/>
    
    <!-- 內湖區 -->
    <path id="neihu" class="district" 
          d="M279,365 L291,374 L291,382 L298,381 L307,396 L321,404 L330,417 L328,430 L322,443 L336,471 L350,473 L377,462 L383,449 L391,450 L388,460 L404,459 L421,456 L435,442 L442,443 L446,435 L454,427 L451,418 L459,414 L461,398 L469,392 L469,386 L471,379 L463,363 L464,353 L455,349 L443,341 L437,331 L427,331 L414,323 L401,319 L391,316 L389,305 L371,304 L366,317 L348,324 L327,328 L317,343 L291,350 Z" 
          fill="#cccccc"/>
    
    <!-- 萬華區 -->
    <path id="wanhua" class="district" 
          d="M152,487 L145,497 L116,512 L102,517 L100,531 L108,547 L107,565 L113,577 L116,588 L126,600 L150,586 L161,567 L173,563 L172,556 L152,542 L167,492 L157,490 Z" 
          fill="#cccccc"/>
    
    <!-- 中正區 -->
    <path id="zhongzheng" class="district" 
          d="M178,487 L169,491 L155,539 L175,555 L178,563 L194,572 L209,594 L226,601 L239,594 L225,576 L202,553 L200,533 L207,522 L220,515 L227,500 L201,490 L190,487 Z" 
          fill="#cccccc"/>
    
    <!-- 大安區 -->
    <path id="daan" class="district" 
          d="M229,498 L224,516 L211,522 L202,531 L204,549 L242,597 L251,602 L262,602 L270,595 L280,600 L285,593 L291,590 L307,603 L312,600 L306,593 L304,586 L278,556 L289,542 L289,502 L281,500 L253,497 Z" 
          fill="#cccccc"/>
    
    <!-- 信義區 -->
    <path id="xinyi" class="district" 
          d="M291,498 L292,543 L281,556 L305,584 L308,592 L317,600 L328,590 L342,585 L357,571 L364,556 L370,544 L379,540 L373,523 L364,508 L352,500 L347,487 L314,489 Z" 
          fill="#cccccc"/>
    
    <!-- 南港區 -->
    <path id="nangang" class="district" 
          d="M354,474 L349,486 L355,499 L367,506 L374,522 L380,539 L372,547 L362,564 L357,575 L344,587 L350,593 L385,587 L399,586 L408,585 L410,573 L421,572 L425,568 L434,572 L445,573 L462,577 L473,571 L479,558 L485,556 L493,558 L505,557 L514,558 L521,565 L530,559 L542,559 L553,561 L564,559 L567,548 L557,542 L542,547 L526,549 L502,537 L489,529 L475,526 L453,517 L442,491 L443,481 L450,476 L455,469 L461,465 L455,455 L441,445 L433,446 L423,458 L404,462 L390,462 L386,452 L378,462 Z" 
          fill="#cccccc"/>
    
    <!-- 文山區 -->
    <path id="wenshan" class="district" 
          d="M239,599 L226,602 L226,624 L213,650 L218,661 L233,640 L239,645 L239,655 L255,658 L257,667 L266,671 L271,668 L276,659 L281,665 L281,688 L287,692 L292,705 L299,724 L318,727 L332,726 L338,719 L351,721 L365,728 L377,728 L385,726 L392,735 L407,734 L420,729 L434,720 L447,717 L450,710 L431,698 L414,698 L403,694 L399,686 L400,665 L404,656 L397,643 L401,630 L396,616 L388,610 L390,597 L393,588 L385,587 L365,591 L347,594 L341,588 L331,591 L313,605 L301,603 L291,593 L284,602 L270,599 L257,606 Z" 
          fill="#cccccc"/>
  </g>
  
  <!-- 文字標籤組 (放在最上層) -->
  <g id="labels">
    <!-- 北投區 - 計算中心點約 (190, 180) -->
    <text x="190" y="180" class="district-label">北投區</text>
    
    <!-- 士林區 - 再往右移動 30px (250 -> 280, 280) -->
    <text x="280" y="280" class="district-label">士林區</text>
    
    <!-- 大同區 - 往上移動 10px (175, 445 -> 435) -->
    <text x="175" y="435" class="district-label">大同區</text>
    
    <!-- 中山區 - 往左移動 30px (250 -> 220, 450) -->
    <text x="220" y="450" class="district-label">中山區</text>
    
    <!-- 松山區 - 計算中心點約 (300, 450) -->
    <text x="300" y="450" class="district-label">松山區</text>
    
    <!-- 內湖區 - 計算中心點約 (390, 400) -->
    <text x="390" y="400" class="district-label">內湖區</text>
    
    <!-- 萬華區 - 計算中心點約 (135, 545) -->
    <text x="135" y="545" class="district-label">萬華區</text>
    
    <!-- 中正區 - 計算中心點約 (200, 545) -->
    <text x="200" y="545" class="district-label">中正區</text>
    
    <!-- 大安區 - 計算中心點約 (260, 550) -->
    <text x="260" y="550" class="district-label">大安區</text>
    
    <!-- 信義區 - 往下移動 10px (335, 520 -> 530) -->
    <text x="335" y="530" class="district-label">信義區</text>
    
    <!-- 南港區 - 再往左移動 30px (440 -> 410, 520) -->
    <text x="410" y="520" class="district-label">南港區</text>
    
    <!-- 文山區 - 計算中心點約 (340, 660) -->
    <text x="340" y="660" class="district-label">文山區</text>
  </g>
</svg>